<svg width="261" height="78" viewBox="0 0 261 78" fill="none" xmlns="http://www.w3.org/2000/svg">
<path fill-rule="evenodd" clip-rule="evenodd" d="M185.533 34.5889C186.139 33.3969 187.1 32.06 188.418 31.6104C188.86 31.4598 189.33 31.4175 189.787 31.5275C190.189 31.6234 190.554 31.8373 190.834 32.1417C191.13 32.4666 191.317 32.8763 191.369 33.3131C191.429 33.8111 191.318 34.3049 191.093 34.7495C190.801 35.3248 190.331 35.7994 189.813 36.1756C189.081 36.7081 188.209 37.0804 187.348 37.3473C187.208 37.3903 187.069 37.434 186.93 37.4759C181.771 39.0212 176.531 40.3146 171.269 41.4576C165.596 42.6894 159.882 43.7459 154.156 44.7041C148.143 45.7098 142.111 46.605 136.074 47.448C129.889 48.3114 123.697 49.1185 117.504 49.9194C108.488 51.0865 99.4668 52.2371 90.4669 53.5284C86.1117 54.1539 81.7626 54.8199 77.4194 55.5266C73.2485 56.2131 69.0853 56.9534 64.9386 57.7744C61.5936 58.4367 58.2516 59.1137 54.9126 59.8056C52.2371 60.3619 49.5647 60.934 46.8956 61.5218C44.7934 61.9862 42.6948 62.4671 40.5999 62.9644C38.9755 63.3527 37.355 63.7574 35.7385 64.1786C33.5319 64.7583 31.3348 65.3802 29.1669 66.0912C28.4009 66.3425 27.6385 66.6042 26.8799 66.8763C26.2096 67.1159 25.5419 67.3617 24.8732 67.6056C24.1025 67.8867 23.3306 68.1635 22.5533 68.4262L22.5341 68.4327L10.9706 68.6024L11.5994 68.3427C14.067 67.3237 16.5748 66.3992 19.1029 65.5427C21.8334 64.6177 24.5913 63.7717 27.3639 62.9836C30.3186 62.1446 33.2896 61.3651 36.277 60.6452C39.4183 59.8824 42.5712 59.1697 45.7356 58.5072C52.4137 57.0991 59.1326 55.8721 65.8647 54.7522C72.8606 53.5884 79.8762 52.5412 86.8996 51.559C97.6965 50.0487 108.514 48.6954 119.332 47.3428C124.424 46.7063 129.514 46.063 134.603 45.4128C139.31 44.8036 144.015 44.1771 148.713 43.5004C152.905 42.8974 157.093 42.2567 161.265 41.5324C163.124 41.2098 164.98 40.8672 166.832 40.5047C168.512 40.1731 170.189 39.8203 171.859 39.4354C173.346 39.0921 174.826 38.7244 176.296 38.3155C177.572 37.9603 178.843 37.5743 180.093 37.1363C181.144 36.7681 182.189 36.3619 183.199 35.8898C184.002 35.5138 184.8 35.0896 185.533 34.5889Z" fill="white"/>
<path fill-rule="evenodd" clip-rule="evenodd" d="M161.908 3.72705L162.941 7.66164L167.054 7.89894L163.581 10.0779L164.63 14.0086L161.45 11.4209L157.985 13.6132L159.493 9.83466L156.302 7.25889L160.414 7.51129L161.908 3.72705Z" fill="white"/>
<path fill-rule="evenodd" clip-rule="evenodd" d="M146.877 4.49615L147.746 7.80236L151.202 8.00168L148.283 9.83282L149.165 13.1358L146.492 10.9614L143.581 12.8036L144.848 9.62847L142.167 7.46414L145.623 7.67605L146.877 4.49615Z" fill="white"/>
<path fill-rule="evenodd" clip-rule="evenodd" d="M133.787 7.00922L134.533 9.84746L137.5 10.0184L134.994 11.5903L135.751 14.4255L133.457 12.5589L130.958 14.1404L132.045 11.4147L129.744 9.55684L132.71 9.73899L133.787 7.00922Z" fill="white"/>
<path fill-rule="evenodd" clip-rule="evenodd" d="M122.691 9.86438L123.283 12.1182L125.639 12.2541L123.649 13.5024L124.251 15.7539L122.429 14.2715L120.444 15.5274L121.308 13.363L119.48 11.8875L121.836 12.0321L122.691 9.86438Z" fill="white"/>
<path fill-rule="evenodd" clip-rule="evenodd" d="M98.4026 64.1411L96.4804 60.8799V64.1411H93.8314V56.4508H96.4802V59.4701L98.3173 56.4511H101.279L98.8727 60.1252L101.521 64.1413L98.4026 64.1411ZM109.876 56.4508V64.1411H107.326V60.6948L104.237 64.1411H102.685V56.4508H105.234V59.8687L108.353 56.4508H109.876ZM119.411 56.4508V64.1411H116.761V61.4353H114.668V64.1411H112.019V56.4508H114.667V59.0996H116.761V56.4508H119.411ZM125.393 64.3974C124.766 64.3974 124.192 64.2953 123.665 64.0912C123.138 63.8871 122.684 63.6022 122.3 63.2367C121.916 62.8707 121.611 62.4296 121.405 61.9408C121.192 61.4424 121.085 60.8941 121.085 60.296C121.085 59.6978 121.192 59.1495 121.405 58.6511C121.611 58.1623 121.916 57.7212 122.3 57.3552C122.684 56.9891 123.139 56.7042 123.665 56.5007C124.191 56.2966 124.766 56.1945 125.393 56.1945C126.019 56.1945 126.594 56.2966 127.121 56.5007C127.648 56.7049 128.101 56.9897 128.485 57.3552C128.869 57.7212 129.174 58.1623 129.38 58.6511C129.594 59.1495 129.7 59.6978 129.7 60.296C129.7 60.8941 129.594 61.4424 129.38 61.9408C129.174 62.4296 128.869 62.8707 128.485 63.2367C128.101 63.6028 127.646 63.8877 127.121 64.0912C126.594 64.2953 126.019 64.3974 125.393 64.3974ZM125.4 62.0191C125.884 62.0191 126.281 61.86 126.59 61.542C126.899 61.2239 127.053 60.8085 127.053 60.296C127.053 59.7832 126.898 59.3679 126.59 59.05C126.281 58.732 125.884 58.573 125.4 58.5728C124.915 58.5728 124.517 58.7319 124.203 59.05C123.89 59.368 123.733 59.7834 123.733 60.296C123.733 60.8087 123.89 61.224 124.203 61.542C124.517 61.8599 124.915 62.0189 125.4 62.0191ZM138.082 58.7435H135.661V64.1408H133.068V58.7438H130.633V56.4508H138.081V58.7438L138.082 58.7435ZM147.375 60.2246C147.375 60.3385 147.37 60.4525 147.361 60.5664C147.352 60.6804 147.337 60.7991 147.318 60.9225H141.607C141.692 61.3687 141.87 61.7034 142.141 61.9264C142.411 62.1494 142.756 62.261 143.173 62.261C143.487 62.261 143.764 62.1969 144.006 62.0687C144.241 61.9478 144.436 61.7625 144.569 61.5346H147.204C147.076 61.9608 146.879 62.3629 146.62 62.7246C146.37 63.0738 146.064 63.3794 145.715 63.6289C145.359 63.8804 144.965 64.0727 144.548 64.1985C144.103 64.3334 143.639 64.4006 143.174 64.3978C142.576 64.3978 142.023 64.2934 141.515 64.0845C141.022 63.8855 140.572 63.5929 140.19 63.223C139.813 62.8549 139.515 62.414 139.314 61.9271C139.106 61.4287 139.001 60.8851 139.001 60.2964C139.001 59.7077 139.106 59.1618 139.314 58.6586C139.513 58.1679 139.81 57.7232 140.187 57.352C140.564 56.9809 141.014 56.6913 141.508 56.5012C142.02 56.2971 142.576 56.195 143.174 56.195C143.791 56.195 144.358 56.2994 144.876 56.5083C145.393 56.7171 145.837 57.002 146.207 57.3628C146.578 57.7245 146.871 58.1583 147.069 58.6374C147.273 59.1263 147.375 59.6556 147.375 60.2252L147.375 60.2246ZM143.173 58.2733C142.784 58.2733 142.459 58.373 142.198 58.5724C141.937 58.7718 141.753 59.066 141.648 59.4552H144.767C144.52 58.6673 143.989 58.2733 143.172 58.2733H143.173ZM157.224 56.4362V64.1269H155.187L154.958 63.5857C154.637 63.8413 154.276 64.0433 153.89 64.1839C153.488 64.3285 153.064 64.4008 152.637 64.3976C152.048 64.3976 151.507 64.2955 151.013 64.0914C150.531 63.8966 150.093 63.6046 149.728 63.2336C149.363 62.8625 149.079 62.4204 148.892 61.9346C148.692 61.4312 148.593 60.8806 148.593 60.2827C148.593 59.6848 148.692 59.1365 148.892 58.6378C149.08 58.1558 149.365 57.7179 149.73 57.3516C150.095 56.9854 150.532 56.6987 151.014 56.5097C151.508 56.3103 152.049 56.2106 152.637 56.2106C153.072 56.2069 153.503 56.2791 153.912 56.4241C154.303 56.5647 154.667 56.7719 154.988 57.0364L155.258 56.4383L157.224 56.4362ZM152.994 62.0472C153.229 62.0497 153.461 62.0036 153.678 61.912C153.881 61.8257 154.065 61.6998 154.219 61.5417C154.373 61.3818 154.494 61.1931 154.575 60.9864C154.746 60.5417 154.746 60.0495 154.575 59.6049C154.494 59.3981 154.373 59.2094 154.219 59.0495C154.065 58.8914 153.881 58.7655 153.678 58.6792C153.461 58.5876 153.229 58.5416 152.994 58.544C152.481 58.544 152.066 58.7101 151.748 59.0424C151.43 59.3747 151.271 59.7924 151.271 60.2957C151.269 60.532 151.312 60.7665 151.399 60.9864C151.48 61.1931 151.601 61.3818 151.755 61.5417C151.911 61.7011 152.098 61.8271 152.304 61.912C152.523 62.0032 152.758 62.0492 152.995 62.0472H152.994ZM166.189 58.7433H163.766V64.1406H161.175V58.7438H158.74V56.4508H166.188V58.7438L166.189 58.7433ZM172.185 56.1941C172.771 56.1941 173.311 56.2962 173.806 56.5003C174.282 56.6942 174.715 56.9821 175.078 57.347C175.434 57.7078 175.709 58.1396 175.908 58.6429C176.108 59.1461 176.207 59.6966 176.207 60.2948C176.207 60.893 176.108 61.4436 175.908 61.9468C175.709 62.45 175.434 62.882 175.078 63.2427C174.716 63.6085 174.283 63.8966 173.806 64.0894C173.314 64.2935 172.775 64.3955 172.187 64.3955C171.851 64.3975 171.516 64.352 171.192 64.2603C170.884 64.172 170.588 64.0452 170.312 63.8829V66.9164H167.706V56.4508H169.498L169.825 57.0632C170.145 56.7884 170.51 56.5716 170.905 56.4225C171.314 56.268 171.747 56.1905 172.184 56.1936L172.185 56.1941ZM171.836 62.0614C172.07 62.0638 172.303 62.0178 172.519 61.9262C172.724 61.8389 172.911 61.7132 173.068 61.5559C173.226 61.3976 173.35 61.2086 173.431 61.0005C173.519 60.7759 173.562 60.5366 173.56 60.2955C173.56 59.7828 173.398 59.3603 173.075 59.028C172.753 58.6957 172.34 58.5296 171.836 58.5296C171.333 58.5296 170.92 58.6957 170.598 59.028C170.275 59.3603 170.114 59.7828 170.113 60.2955C170.113 60.8082 170.275 61.2307 170.598 61.563C170.92 61.8953 171.333 62.0616 171.836 62.0619V62.0614Z" fill="white"/>
<path fill-rule="evenodd" clip-rule="evenodd" d="M66.9305 26.4881C79.791 21.9924 92.7349 17.9407 105.804 14.5322L107.398 17.7381C93.7861 20.1878 80.2821 23.338 66.8404 26.8886L67.0234 26.8401L66.9305 26.4881ZM66.8143 26.8957L66.1852 27.0623L66.8143 26.8957Z" fill="white"/>
<path fill-rule="evenodd" clip-rule="evenodd" d="M112.64 12.7363L113.06 14.3367L114.734 14.4333L113.321 15.3198L113.747 16.9189L112.454 15.8663L111.044 16.758L111.657 15.2207L110.359 14.1731L112.032 14.2756L112.64 12.7363Z" fill="white"/>
<path fill-rule="evenodd" clip-rule="evenodd" d="M50.8409 34.4726C50.9557 34.4989 51.0701 34.5256 51.1842 34.5527C52.217 34.7978 53.2082 35.1932 54.1261 35.7262C55.0872 36.2868 55.8112 37.0305 56.3886 37.9797C57.0655 39.0923 56.9868 40.442 56.7318 41.6688C56.2712 43.8855 55.1705 45.8546 53.7341 47.5856C52.0808 49.5778 50.0849 51.2957 47.9775 52.7904C45.591 54.4826 43.0315 55.9166 40.342 57.068C37.5044 58.2854 34.539 59.2479 31.5044 59.8271C30.1579 60.0841 28.7996 60.3033 27.4368 60.4536C26.3263 60.5763 25.1972 60.6571 24.0796 60.6429C20.9045 60.6026 17.9397 59.3573 16.1324 56.6666C15.0397 55.0401 14.5349 53.0874 14.5736 51.1371C14.6168 48.9538 15.3207 46.8389 16.4594 44.9862C19.0269 40.8091 27.8524 33.8168 33.6193 37.1788L32.6811 37.7434C29.0968 39.8978 25.7444 43.0679 23.8897 46.8588C23.208 48.2524 22.6917 49.8236 22.6164 51.3824C22.5581 52.5952 22.7704 53.8378 23.4588 54.8593C25.2842 57.5687 29.3778 57.2982 32.1545 56.7012C34.2369 56.2531 36.2447 55.5383 38.1006 54.4858C39.7818 53.5323 41.4049 52.4034 42.7688 51.0279C43.9786 49.8082 45.0443 48.4618 45.9324 46.9906C46.6949 45.7274 47.3102 44.3686 47.6423 42.9269C47.8734 41.9235 48.0196 40.6253 47.4876 39.6866C47.0299 38.877 46.3997 38.334 45.5457 37.9601C44.5686 37.5321 43.6031 37.2777 42.5377 37.1781C41.4635 37.0779 40.3749 37.0111 39.2958 37.0131L38.3475 37.015C38.6081 36.3415 38.9136 35.7106 39.1683 35.0497L39.5326 34.9882C43.2564 34.358 47.3926 33.2454 50.5135 31.0328C52.7604 29.4399 54.3515 27.3613 54.9632 24.6583C55.2378 23.4441 55.3373 21.9874 54.281 21.1126C53.2334 20.245 51.9879 19.8837 50.6412 19.845C49.6183 19.8157 48.5659 19.9558 47.5711 20.1922C46.5301 20.4398 45.5315 20.808 44.5951 21.327C42.0322 22.7469 38.1125 26.9492 43.8219 27.1144C41.7875 29.3357 39.2852 29.7014 36.4271 29.7129C35.9763 29.7147 35.4735 29.6113 35.0397 29.4943C34.4689 29.3405 33.987 29.0808 33.5207 28.7245C33.0401 28.3584 32.6584 27.9117 32.4126 27.3581C32.1245 26.7094 32.1692 25.9693 32.3351 25.295C32.6843 23.8748 33.8779 22.6789 34.9895 21.8009C36.4918 20.6146 38.2928 19.7478 40.074 19.0688C42.0601 18.3118 44.156 17.7793 46.2526 17.4377C48.397 17.088 50.6004 16.9754 52.7677 17.1402C54.1104 17.2436 55.4422 17.4579 56.7495 17.7809C57.9563 18.0773 59.0996 18.5283 60.139 19.216C61.0673 19.8302 61.7964 20.6135 62.2671 21.6274C62.7767 22.7238 62.7305 23.9593 62.4793 25.1156C62.1413 26.6703 61.3808 27.9302 60.1859 28.9877C58.9314 30.0984 57.5831 31.0632 56.1376 31.9113C54.7719 32.7122 53.3581 33.4731 51.8872 34.0623C51.5432 34.1999 51.1933 34.3385 50.8409 34.4726Z" fill="white"/>
<path fill-rule="evenodd" clip-rule="evenodd" d="M76.1897 36.3534C77.239 36.4257 78.2609 36.7365 78.9934 37.5516C79.9106 38.5722 79.9921 39.9086 79.731 41.2024C79.3992 42.8464 78.549 44.3031 77.4458 45.5491C76.2287 46.924 74.8371 48.1441 73.3469 49.2144C71.7543 50.3537 70.0461 51.3221 68.2506 52.1036C66.7386 52.765 65.1022 53.3968 63.4745 53.6959C62.3089 53.9101 60.9624 54.0101 59.8246 53.611C58.8827 53.2808 58.1312 52.6943 57.6218 51.8359C57.0955 50.9483 56.8912 49.9254 56.8969 48.9013C56.9033 47.7443 57.0601 46.586 57.3283 45.4613C57.9436 42.8818 59.0239 40.4656 60.4539 38.2367C61.9221 35.9484 63.6517 33.8431 65.6485 31.9943C67.5073 30.2746 69.6458 28.8581 71.9371 27.7838C73.9133 26.857 76.0479 26.2874 78.2415 26.3272C79.366 26.3476 80.4557 26.6217 81.4372 27.1739C82.6976 27.8833 82.9223 29.1758 82.642 30.4952C82.4331 31.4792 81.9369 32.3012 81.2342 33.0142C80.5097 33.7498 79.6986 34.3948 78.8186 34.9348C77.9693 35.456 77.0917 35.9296 76.19 36.3536L76.1897 36.3534ZM64.048 46.286C64.0359 47.0137 64.1853 47.6983 64.4562 48.3709C64.6441 48.837 64.8942 49.3091 65.3157 49.6036C65.7373 49.8981 66.2984 49.8917 66.7819 49.8096C68.4153 49.532 69.7885 48.6208 70.9252 47.4471C72.1128 46.2208 72.9707 44.8008 73.311 43.115C73.4961 42.1978 73.579 41.0246 72.8673 40.2978C72.1716 39.5884 71.3112 39.4093 70.3393 39.4827C69.4718 39.5482 68.6002 39.7486 67.7789 40.0299C64.5386 41.1386 64.1013 43.0557 64.0489 46.286H64.048ZM66.0887 37.9779L66.162 37.955C66.6654 37.8047 67.1652 37.6321 67.6599 37.4564C68.9847 36.9857 70.2815 36.3886 71.5314 35.7472C72.819 35.0876 74.045 34.3141 75.1948 33.436C75.9714 32.8424 76.7492 32.0298 76.9426 31.036C76.9898 30.7932 76.8511 30.4815 76.7474 30.27C76.6188 30.0067 76.3081 29.8639 76.0435 29.7808C75.5767 29.6341 74.9062 29.7272 74.4389 29.8266C73.5147 30.0234 72.4847 30.6684 71.6986 31.1753C71.0952 31.5643 70.5254 32.0545 70.0011 32.5433C69.3357 33.1616 68.7177 33.8289 68.1522 34.5396C67.599 35.2336 67.1017 35.9702 66.6647 36.7426C66.4396 37.1382 66.2469 37.5513 66.0885 37.9779H66.0887Z" fill="white"/>
<path fill-rule="evenodd" clip-rule="evenodd" d="M136.771 32.8385C137.324 31.0765 137.878 29.3144 138.453 27.5593L138.495 27.433L138.627 27.4256C139.915 27.3538 141.203 27.2813 142.492 27.2082L142.773 27.1927L142.688 27.4616C141.93 29.8407 141.178 32.2216 140.432 34.6042C139.673 37.0298 138.905 39.4539 138.148 41.8811L138.112 41.9988L137.989 42.0159C136.641 42.2049 135.292 42.3944 133.944 42.5844L133.638 42.6276L133.731 42.3331C134.063 41.2829 134.399 40.2338 134.738 39.1857C135.043 38.2395 135.342 37.2909 135.652 36.3461C134.09 36.5095 132.527 36.6555 130.965 36.82C130.625 37.8557 130.286 38.8915 129.946 39.9274C129.592 41.0096 129.24 42.0927 128.889 43.1768L128.851 43.2912L128.731 43.3084C127.39 43.4994 126.048 43.6889 124.706 43.8768L124.397 43.9201L124.494 43.6226C125.351 41.0004 126.21 38.3789 127.07 35.758C127.922 33.1773 128.775 30.5972 129.63 28.0176L129.671 27.8925L129.803 27.8849C131.091 27.8105 132.379 27.7394 133.667 27.6643L133.952 27.6476L133.863 27.919C133.285 29.6827 132.715 31.4488 132.152 33.2172C133.692 33.0845 135.233 32.9726 136.771 32.8385Z" fill="white"/>
<path fill-rule="evenodd" clip-rule="evenodd" d="M147.83 32.2797C149.142 32.1485 150.454 32.0174 151.766 31.8863C152.427 31.8206 153.119 31.7975 153.779 31.8863C154.281 31.955 154.79 32.0923 155.222 32.3618C156.085 32.9 156.358 33.7758 156.286 34.7589C156.185 36.1289 155.554 37.2335 154.547 38.1527C153.336 39.2568 151.713 39.7921 150.119 40.0337C147.166 40.4816 144.213 40.9279 141.259 41.3724L140.95 41.4182L141.045 41.1207C141.793 38.7546 142.541 36.3879 143.287 34.0209C144.021 31.6955 144.76 29.3721 145.49 27.0453L145.53 26.9176L145.663 26.9094C146.867 26.8346 148.071 26.7611 149.275 26.6888L149.556 26.6714L149.473 26.9403C149.185 27.8723 148.888 28.8014 148.61 29.7366C148.359 30.5863 148.092 31.4316 147.832 32.2788L147.83 32.2797ZM146.028 38.0106C146.82 37.9015 147.613 37.7955 148.405 37.6859C148.995 37.6042 149.599 37.4985 150.173 37.3342C150.536 37.2301 150.943 37.0873 151.261 36.8777C151.725 36.5712 152.018 36.1534 152.067 35.5946C152.104 35.1692 151.982 34.8662 151.568 34.7131C151.29 34.6101 150.886 34.5937 150.593 34.5911C150.022 34.5861 149.436 34.6369 148.87 34.7023C148.244 34.7735 147.618 34.8472 146.993 34.9179C146.675 35.95 146.345 36.9783 146.028 38.0106Z" fill="white"/>
<path fill-rule="evenodd" clip-rule="evenodd" d="M159.907 25.9877C161.104 25.9127 162.302 25.8392 163.5 25.7671L163.774 25.7506L163.698 26.0158C163.109 28.0375 162.523 30.0602 161.942 32.0838C161.349 34.1513 160.757 36.2184 160.166 38.2852L160.131 38.4056L160.008 38.4241L156.227 38.9926L155.926 39.0383L156.012 38.7459C156.634 36.6177 157.275 34.4967 157.897 32.3694C158.506 30.2873 159.118 28.2061 159.733 26.1256L159.771 25.9954L159.907 25.9877Z" fill="white"/>
<path fill-rule="evenodd" clip-rule="evenodd" d="M172.142 35.5145C170.763 36.6289 169.19 37.4163 167.411 37.6884C166.462 37.834 165.374 37.8257 164.56 37.2479C163.801 36.7099 163.539 35.8866 163.586 34.9857C163.594 34.848 163.611 34.7109 163.636 34.5751C163.668 34.3896 163.707 34.2046 163.748 34.0211C163.867 33.4959 164.006 32.9731 164.148 32.4536C164.452 31.3348 164.775 30.2209 165.08 29.1023C165.382 27.9952 165.686 26.8886 166.004 25.7858L166.042 25.6538L166.179 25.6453L169.8 25.4217L170.074 25.4048L170 25.6684C169.682 26.8028 169.389 27.9435 169.087 29.0822C168.782 30.2375 168.471 31.3914 168.155 32.5438C168.063 32.8802 167.97 33.2181 167.89 33.5575C167.864 33.6644 167.839 33.7719 167.82 33.8799C167.807 33.941 167.798 34.0028 167.794 34.0651C167.784 34.3376 167.909 34.536 168.133 34.6841C168.431 34.8802 168.787 34.8992 169.131 34.8527C169.456 34.8064 169.772 34.714 170.07 34.5781C170.411 34.4259 170.735 34.2195 171.037 34.0017C171.367 33.7669 171.673 33.4998 171.951 33.2042C172.246 32.8803 172.493 32.5152 172.683 32.1202C172.779 31.9162 172.863 31.706 172.932 31.4911C173.035 31.1824 173.124 30.8671 173.205 30.5529C173.434 29.6664 173.678 28.7842 173.899 27.8959C174.118 27.0158 174.364 26.143 174.594 25.2659L174.63 25.13L174.77 25.121C175.984 25.0432 177.197 24.967 178.411 24.8922L178.678 24.8753L178.612 25.1348C178.153 26.9288 177.685 28.7204 177.233 30.5165C176.771 32.3534 176.298 34.187 175.834 36.0234L175.803 36.1488L175.675 36.1683L172.103 36.7088L171.809 36.7532L171.886 36.466C171.971 36.1491 172.056 35.8324 172.141 35.5156L172.142 35.5145ZM168.903 21.7913L168.688 21.7981L168.717 22.0116C168.841 22.9313 169.172 23.8313 169.933 24.4107C170.671 24.9737 171.583 25.1291 172.492 25.0776C173.476 25.022 174.373 24.7009 175.174 24.1286C175.996 23.5414 176.558 22.759 176.91 21.8144L177.011 21.5423L176.721 21.5521C176.172 21.5704 175.622 21.5862 175.073 21.605L174.973 21.6084L174.917 21.6922C174.364 22.5297 173.634 23.1366 172.601 23.1796C172.224 23.1954 171.808 23.1476 171.486 22.9352C171.145 22.7098 170.944 22.2439 170.819 21.8711L170.774 21.7338L170.629 21.7384C170.053 21.7572 169.478 21.7727 168.903 21.7913H168.903Z" fill="white"/>
<path fill-rule="evenodd" clip-rule="evenodd" d="M104.618 45.9162C103.863 46.4519 103.02 46.8832 102.108 47.2269C101.207 47.5657 100.272 47.8092 99.3204 47.9537C98.1694 48.1297 97.1668 48.1501 96.2943 48.0034C95.4304 47.8581 94.687 47.6523 94.0517 47.407C94.5975 45.9411 95.1231 44.4814 95.6689 43.0184C97.4767 44.6514 101.424 44.686 103.04 42.621C103.285 42.3088 103.455 41.8782 103.546 41.3475C103.604 41.0148 103.601 40.7596 103.526 40.574C103.452 40.3884 103.306 40.2557 103.08 40.1672C102.87 40.0848 102.604 40.0427 102.237 40.0553C101.89 40.0674 101.542 40.0889 101.184 40.1299C100.509 40.207 99.8248 40.2882 99.1502 40.3628C99.557 39.1825 99.9836 37.9992 100.4 36.8191L102.008 36.6607C102.355 36.6266 102.752 36.5806 103.198 36.5117C103.634 36.4431 104.008 36.333 104.299 36.2074C104.663 36.0504 104.968 35.8424 105.212 35.5861C105.455 35.3298 105.622 34.9532 105.717 34.4525C105.771 34.1735 105.751 33.938 105.649 33.7474C105.544 33.5527 105.39 33.4113 105.182 33.3065C104.956 33.193 104.71 33.1214 104.458 33.0952C104.185 33.063 103.909 33.0568 103.634 33.0767C102.263 33.1827 100.139 34.3326 98.8822 34.9589C99.3981 33.5177 99.9141 32.0775 100.43 30.6385C100.936 30.4149 101.699 30.1417 102.702 29.8186C103.723 29.4895 104.666 29.3034 105.559 29.2501C106.284 29.2071 106.928 29.246 107.504 29.362C108.06 29.4713 108.587 29.6945 109.052 30.0174C109.489 30.3211 109.796 30.7295 109.995 31.2286C110.194 31.7277 110.239 32.3385 110.104 33.0673C109.902 34.1557 109.426 35.1303 108.685 36.0085C107.938 36.8944 107.137 37.5211 106.294 37.8875C106.277 37.9328 106.264 37.9796 106.255 38.0273C106.8 38.1951 107.231 38.5308 107.554 39.0273C107.877 39.5239 107.96 40.1919 107.802 41.0461C107.603 42.1267 107.213 43.0651 106.652 43.8757C106.09 44.6862 105.39 45.3686 104.618 45.9162Z" fill="white"/>
<path fill-rule="evenodd" clip-rule="evenodd" d="M126.445 29.6906C126.303 30.714 126.086 31.7351 125.837 32.7607C125.581 33.8089 125.267 34.8424 124.898 35.8564C124.396 37.2294 123.848 38.4651 123.249 39.5763C122.65 40.6875 121.988 41.6731 121.268 42.5249C119.445 44.6988 117.372 45.9597 115.025 46.2929C112.458 46.6574 110.746 45.9496 109.91 44.1448C109.348 42.9338 109.235 41.4727 109.524 39.7685C109.738 38.5113 110.065 37.3127 110.525 36.1797C110.988 35.0498 111.581 33.9776 112.292 32.9847C114.169 30.3788 116.47 29.0131 119.237 28.8581C119.846 28.824 120.415 28.8712 120.933 29.0023C121.44 29.1305 121.94 29.3609 122.448 29.6906C122.509 29.4902 122.557 29.2859 122.592 29.0792C122.624 28.8732 122.644 28.6996 122.664 28.5703C122.897 27.06 122.701 25.8204 122.114 24.8439C121.502 23.8002 120.474 23.2931 119.066 23.3297C118.135 23.354 117.247 23.5762 116.382 23.9933C116.27 23.3723 116.136 22.748 116.012 22.1206C117.596 21.237 119.17 20.7819 120.723 20.7631C122.876 20.737 124.45 21.4867 125.455 22.9977C125.976 23.791 126.321 24.7439 126.49 25.8565C126.656 26.9648 126.646 28.2499 126.446 29.6918L126.445 29.6906ZM121.752 32.5877C121.124 32.066 120.444 31.8271 119.715 31.8801C118.377 31.9776 117.139 32.7763 115.974 34.3003C114.799 35.8367 114.022 37.7653 113.661 40.0722C113.48 41.2228 113.544 42.088 113.847 42.6461C114.15 43.2043 114.701 43.4313 115.462 43.3345C116.763 43.1688 118.025 41.8779 119.236 39.4864C119.708 38.59 120.144 37.5669 120.565 36.4131C120.983 35.2687 121.375 33.99 121.752 32.5877Z" fill="white"/>
<path fill-rule="evenodd" clip-rule="evenodd" d="M85.7001 49.9544C83.3859 50.2748 81.7671 49.8032 80.8858 48.5128C80.0014 47.2185 79.9041 45.262 80.5568 42.6706C81.0007 40.9075 81.6075 39.2666 82.3771 37.7477C83.1004 36.3075 83.9992 34.9624 85.0529 33.7431C86.0225 32.625 87.1225 31.7168 88.3209 31.0378C89.5351 30.3502 90.7774 29.9813 92.0386 29.9135C93.9576 29.8106 95.2713 30.2968 95.9974 31.3454C96.7189 32.3872 96.8455 33.9735 96.3484 36.1129C96.1798 36.8519 95.9599 37.5783 95.6905 38.2868C95.4159 39.0013 95.1093 39.7125 94.7802 40.4269C91.4903 40.7625 88.204 41.0982 84.9213 41.4338C84.8998 41.5681 84.8543 41.6912 84.8227 41.8228C84.5003 43.1512 84.5845 44.1473 85.0529 44.8205C85.5168 45.4864 86.4234 45.7405 87.7616 45.5784C89.3385 45.3874 92.3978 43.8208 93.6068 42.8267C92.9708 44.4293 92.3347 46.0361 91.6985 47.6471C90.7335 48.262 89.7667 48.7615 88.7596 49.1535C87.7742 49.5384 86.7474 49.8072 85.6998 49.9544H85.7001ZM91.9072 37.3166C91.9839 37.1086 92.0347 36.9241 92.0827 36.7637C92.1333 36.5948 92.1862 36.4179 92.2253 36.2482C92.4273 35.3742 92.3951 34.7291 92.1267 34.2914C91.8582 33.8536 91.3701 33.6561 90.6681 33.7074C89.8019 33.7708 89.0058 34.1461 88.2555 34.866C87.5051 35.5859 86.8298 36.571 86.2266 37.8104C88.1236 37.6456 90.0099 37.4811 91.9072 37.3166Z" fill="white"/>
</svg>
